<?xml version="1.0" standalone="no"?><!DOCTYPE svg PUBLIC "-//W3C//DTD SVG 1.1//EN" "http://www.w3.org/Graphics/SVG/1.1/DTD/svg11.dtd"><svg t="1546244436538" class="icon" style="" viewBox="0 0 1024 1024" version="1.1" xmlns="http://www.w3.org/2000/svg" p-id="821" xmlns:xlink="http://www.w3.org/1999/xlink" width="64" height="64"><defs><style type="text/css"></style></defs><path d="M328 248m-72 0a72 72 0 1 0 144 0 72 72 0 1 0-144 0Z" p-id="822" fill="#e0620d"></path><path d="M480 208m-48 0a48 48 0 1 0 96 0 48 48 0 1 0-96 0Z" p-id="823" fill="#e0620d"></path><path d="M616 216m-40 0a40 40 0 1 0 80 0 40 40 0 1 0-80 0Z" p-id="824" fill="#e0620d"></path><path d="M704 272m-32 0a32 32 0 1 0 64 0 32 32 0 1 0-64 0Z" p-id="825" fill="#e0620d"></path><path d="M608 304c-160-48-240 32-240 32s-48 48 0 128 80 48 80 112-48 48-48 144c0 128 96 128 144 128s96-32 128-96 0-128 16-176 80-224-80-272z" p-id="826" fill="#e0620d"></path></svg>