<?xml version="1.0" standalone="no"?><!DOCTYPE svg PUBLIC "-//W3C//DTD SVG 1.1//EN" "http://www.w3.org/Graphics/SVG/1.1/DTD/svg11.dtd"><svg t="1546245316850" class="icon" style="" viewBox="0 0 1024 1024" version="1.1" xmlns="http://www.w3.org/2000/svg" p-id="4186" xmlns:xlink="http://www.w3.org/1999/xlink" width="64" height="64"><defs><style type="text/css"></style></defs><path d="M698.522 168.192c-52.685 0-105.472 20.992-145.716 63.078l-36.352 38.042h-0.05l-4.148 4.403-4.198-4.403h-0.052l-36.454-38.042a201.216 201.216 0 0 0-145.818-63.078c-52.787 0-105.625 20.992-145.868 63.078-80.59 84.07-80.59 220.416 0 304.487l164.096 171.315h0.05l127.591 133.171a50.022 50.022 0 0 0 36.301 15.565c1.485 0 2.918-0.102 4.403-0.205a49.613 49.613 0 0 0 40.55-15.36l127.437-133.171 0.154-0.154L807.782 573.85l36.404-38.042c80.435-84.122 80.435-220.416 0-304.486a200.806 200.806 0 0 0-145.664-63.13" p-id="4187" fill="#fc1a02"></path></svg>