<?xml version="1.0" standalone="no"?><!DOCTYPE svg PUBLIC "-//W3C//DTD SVG 1.1//EN" "http://www.w3.org/Graphics/SVG/1.1/DTD/svg11.dtd"><svg t="1547378519741" class="icon" style="" viewBox="0 0 1024 1024" version="1.1" xmlns="http://www.w3.org/2000/svg" p-id="6820" xmlns:xlink="http://www.w3.org/1999/xlink" width="16" height="16"><defs><style type="text/css"></style></defs><path d="M728.177778 113.777778c-130.844444 0-210.488889 102.4-210.488889 102.4S449.422222 113.777778 307.2 113.777778 56.888889 193.422222 56.888889 386.844444c0 273.066667 460.8 568.888889 460.8 568.888889S967.111111 642.844444 967.111111 392.533333C967.111111 187.733333 836.266667 113.777778 728.177778 113.777778M517.688889 887.466667S113.777778 608.711111 113.777778 386.844444c0-142.222222 96.711111-221.866667 204.8-221.866666C426.666667 164.977778 517.688889 284.444444 517.688889 284.444444s108.088889-119.466667 204.8-119.466666c96.711111 0 193.422222 73.955556 193.422222 227.555555-5.688889 216.177778-398.222222 494.933333-398.222222 494.933334" fill="#f91b03" p-id="6821"></path></svg>