<?xml version="1.0" standalone="no"?><!DOCTYPE svg PUBLIC "-//W3C//DTD SVG 1.1//EN" "http://www.w3.org/Graphics/SVG/1.1/DTD/svg11.dtd"><svg t="1547370962639" class="icon" style="" viewBox="0 0 1024 1024" version="1.1" xmlns="http://www.w3.org/2000/svg" p-id="3429" xmlns:xlink="http://www.w3.org/1999/xlink" width="16" height="16"><defs><style type="text/css"></style></defs><path d="M272 884.8h-64c-41.6 0-76.8-35.2-76.8-76.8V481.6c0-41.6 35.2-76.8 76.8-76.8 12.8 0 24 11.2 24 24s-11.2 24-24 24c-16 0-28.8 12.8-28.8 28.8v326.4c0 16 12.8 28.8 28.8 28.8h64c3.2 0 6.4-3.2 6.4-6.4v-400c0-12.8 11.2-24 24-24s24 11.2 24 24v400c0 28.8-25.6 54.4-54.4 54.4zM718.4 888H403.2c-12.8 0-24-11.2-24-24s11.2-24 24-24h315.2c9.6 0 12.8 0 25.6-32 0-1.6 1.6-3.2 1.6-3.2 1.6-1.6 1.6-4.8 3.2-8l84.8-246.4c9.6-28.8 6.4-62.4-11.2-88-16-24-40-38.4-67.2-41.6h-136c-12.8 0-24-11.2-24-24s11.2-24 24-24h139.2c41.6 3.2 80 27.2 104 62.4 25.6 38.4 30.4 86.4 16 129.6l-84.8 246.4c-1.6 4.8-3.2 11.2-8 17.6-9.6 28.8-24 59.2-67.2 59.2z" p-id="3430" fill="#707070"></path><path d="M620.8 417.6c-12.8 0-24-11.2-24-24v-152c0-32-24-56-52.8-56-28.8 0-49.6 24-49.6 32v44.8c0 12.8-11.2 24-24 24s-24-11.2-24-24v-44.8c0-40 48-80 97.6-80 56 0 100.8 46.4 100.8 104v152c0 14.4-11.2 24-24 24z" p-id="3431" fill="#707070"></path><path d="M302.4 454.4c-12.8 0-24-11.2-24-24s11.2-24 24-24c80 0 144-64 144-144 0-12.8 11.2-24 24-24s24 11.2 24 24c0 105.6-86.4 192-192 192z" p-id="3432" fill="#707070"></path></svg>